# xmcd
#
# Track frame offsets:
#	150
#	13775
#	25586
#	41282
#	53896
#	65397
#	76083
#	98454
#	111072
#	129859
#	147044
#
# Disc length: 2167 seconds
#
# Revision: 1
# Processed by: cddbd v1.5.2PL0 Copyright (c) Steve Scherf et al.
# Submitted via: audiograbber 1.83.01
#
DISCID=7608750b
DTITLE=Steve Wariner - My Tribute To Chet Atkins
DYEAR=2009
DGENRE=Country
TTITLE0=Leavin' Luttrell
TTITLE1=John Henry
TTITLE2=(Back Home Again In) Indiana
TTITLE3=Leona
TTITLE4=Blue Angel
TTITLE5=Reeding Out Loud
TTITLE6=Producer's Medley
TTITLE7=Tuned In
TTITLE8=6120
TTITLE9=Chet's Guitar
TTITLE10=Silent Strings
EXTD=
EXTT0=
EXTT1=
EXTT2=
EXTT3=
EXTT4=
EXTT5=
EXTT6=
EXTT7=
EXTT8=
EXTT9=
EXTT10=
PLAYORDER=
